# xmcd
#
# Track frame offsets: 
#        150
#        28400
#        48891
#        69804
#        104056
#        124082
#        148427
#        173794
#        201293
#        230951
#        283354
#        309036
#
# Disc length: 4450 seconds
#
# Revision: 0
# Processed by: cddbd v1.5.2PL0 Copyright (c) Steve Scherf et al.
# Submitted via: ExactAudioCopyFreeDBPlugin 1.0
#
DISCID=bc11600c
DTITLE=Meridian Brothers - Devoción [Works 2005-2011]
DYEAR=1900
DGENRE=
TTITLE0=Los falsos reyes magos
TTITLE1=El enamorado
TTITLE2=Te odio (te amo?)
TTITLE3=Sostengan al ángel entusiasta
TTITLE4=Canción del moderno templario
TTITLE5=Escuchen el grito del tigrillo
TTITLE6=Canción de invierno
TTITLE7=El jazz del chupasangres
TTITLE8=El ganadero del futuro
TTITLE9=Devoción
TTITLE10=Sigan al minero hasta la escala (amirbar)
TTITLE11=Coplas para cantar el atardecer
EXTD=
EXTT0=
EXTT1=
EXTT2=
EXTT3=
EXTT4=
EXTT5=
EXTT6=
EXTT7=
EXTT8=
EXTT9=
EXTT10=
EXTT11=
PLAYORDER=
